<svg width="11" height="19" viewBox="0 0 11 19" fill="none" xmlns="http://www.w3.org/2000/svg">
<g clip-path="url(#clip0_2_3)">
<path d="M5.47 7.3C7.48584 7.3 9.12 5.66584 9.12 3.65C9.12 1.63416 7.48584 0 5.47 0C3.45416 0 1.82 1.63416 1.82 3.65C1.82 5.66584 3.45416 7.3 5.47 7.3Z" fill="#009BDF"/>
<path d="M10.94 13.74C10.94 10.72 8.49 8.27 5.47 8.27C2.45 8.27 0 10.72 0 13.74V18.78H10.94V13.74Z" fill="#009BDF"/>
<path d="M4.00426 17H2.19318L4.23366 10.8182H6.5277L8.56818 17H6.7571L5.40483 12.5206H5.35653L4.00426 17ZM3.66619 14.5611H7.07102V15.8168H3.66619V14.5611Z" fill="white"/>
</g>
<defs>
<clipPath id="clip0_2_3">
<rect width="10.94" height="18.78" fill="white"/>
</clipPath>
</defs>
</svg>
