<svg width="11" height="19" viewBox="0 0 11 19" fill="none" xmlns="http://www.w3.org/2000/svg">
<g clip-path="url(#clip0_0_3)">
<path d="M5.47 7.3C7.48584 7.3 9.12 5.66584 9.12 3.65C9.12 1.63416 7.48584 0 5.47 0C3.45416 0 1.82 1.63416 1.82 3.65C1.82 5.66584 3.45416 7.3 5.47 7.3Z" fill="#39B54A"/>
<path d="M10.94 13.74C10.94 10.72 8.49 8.27 5.47 8.27C2.45 8.27 0 10.72 0 13.74V18.78H10.94V13.74Z" fill="#39B54A"/>
<path d="M8.16974 13.1364H6.46733C6.45526 12.9955 6.42306 12.8677 6.37074 12.753C6.32043 12.6383 6.25 12.5397 6.15945 12.4572C6.0709 12.3727 5.96325 12.3083 5.83647 12.264C5.70969 12.2177 5.56581 12.1946 5.40483 12.1946C5.12311 12.1946 4.88465 12.263 4.68945 12.3999C4.49627 12.5367 4.34937 12.7329 4.24876 12.9885C4.15015 13.244 4.10085 13.5509 4.10085 13.9091C4.10085 14.2874 4.15116 14.6043 4.25178 14.8599C4.3544 15.1135 4.50231 15.3046 4.69549 15.4334C4.88867 15.5602 5.12109 15.6236 5.39276 15.6236C5.5477 15.6236 5.68655 15.6045 5.8093 15.5662C5.93206 15.526 6.03871 15.4686 6.12926 15.3942C6.21982 15.3197 6.29326 15.2302 6.34961 15.1255C6.40797 15.0189 6.44721 14.8991 6.46733 14.7663L8.16974 14.7784C8.14962 15.04 8.07617 15.3066 7.9494 15.5783C7.82262 15.848 7.64252 16.0975 7.40909 16.3269C7.17768 16.5543 6.89092 16.7374 6.54883 16.8762C6.20674 17.0151 5.8093 17.0845 5.35653 17.0845C4.78906 17.0845 4.27995 16.9628 3.82919 16.7193C3.38045 16.4758 3.02527 16.1176 2.76367 15.6447C2.50408 15.1718 2.37429 14.5933 2.37429 13.9091C2.37429 13.2209 2.5071 12.6413 2.77273 12.1705C3.03835 11.6976 3.39654 11.3404 3.8473 11.0989C4.29806 10.8554 4.80114 10.7337 5.35653 10.7337C5.74692 10.7337 6.10612 10.787 6.43413 10.8936C6.76213 11.0003 7.04989 11.1562 7.29741 11.3615C7.54492 11.5647 7.74414 11.8153 7.89506 12.1131C8.04599 12.4109 8.13755 12.752 8.16974 13.1364Z" fill="white"/>
</g>
<defs>
<clipPath id="clip0_0_3">
<rect width="10.94" height="18.78" fill="white"/>
</clipPath>
</defs>
</svg>
